<?xml version="1.0" encoding="UTF-8" standalone="no"?>
<!-- Created with Inkscape (http://www.inkscape.org/) -->

<svg
   version="1.1"
   id="svg1"
   width="201.60001"
   height="325.76001"
   viewBox="0 0 201.60001 325.76001"
   sodipodi:docname="man.svg"
   inkscape:version="1.3.2 (091e20ef0f, 2023-11-25)"
   xmlns:inkscape="http://www.inkscape.org/namespaces/inkscape"
   xmlns:sodipodi="http://sodipodi.sourceforge.net/DTD/sodipodi-0.dtd"
   xmlns="http://www.w3.org/2000/svg"
   xmlns:svg="http://www.w3.org/2000/svg">
  <defs
     id="defs1" />
  <sodipodi:namedview
     id="namedview1"
     pagecolor="#ffffff"
     bordercolor="#000000"
     borderopacity="0.25"
     inkscape:showpageshadow="2"
     inkscape:pageopacity="0.0"
     inkscape:pagecheckerboard="0"
     inkscape:deskcolor="#d1d1d1"
     showgrid="false"
     inkscape:zoom="1.8605062"
     inkscape:cx="142.97185"
     inkscape:cy="190.53955"
     inkscape:window-width="1920"
     inkscape:window-height="1011"
     inkscape:window-x="0"
     inkscape:window-y="0"
     inkscape:window-maximized="1"
     inkscape:current-layer="layer1" />
  <g
     inkscape:groupmode="layer"
     id="layer1"
     inkscape:label="Layer 1">
    <path
       id="path4"
       style="fill:#00ffff;stroke-width:34.2"
       d="M 136.24805 160.17773 L 134.19727 161.05469 L 134.37305 164.11719 L 136.66992 165.70117 L 139.76562 165.32422 L 140.01758 162.58789 L 138.65234 160.68164 L 136.24805 160.17773 z M 70.224609 160.59961 L 67.849609 162.14062 L 68.845703 165.73438 L 71.955078 167.04688 L 74.082031 165.37305 L 74.259766 163.01172 C 74.259766 163.01172 73.708619 161.83488 72.863281 161.30273 C 72.017942 160.77059 70.224609 160.59961 70.224609 160.59961 z " />
    <path
       style="fill:#803300;stroke-width:34.2"
       d="m 183.80755,103.0887 -5.63499,15.07796 -29.3036,-29.793207 c 0,0 -76.803987,6.925141 -81.208606,7.420136 -4.40462,0.494995 -46.651216,9.181981 -46.651216,8.453271 0,-0.72871 -0.563912,-7.1199 0.631029,-7.886963 1.19494,-0.767063 4.102588,-24.619128 5.95133,-26.011827 1.848742,-1.392698 5.320901,-23.403213 10.647794,-24.541223 5.326893,-1.13801 35.392169,-20.027536 36.854982,-20.027536 1.462813,0 28.687557,-6.609926 33.563807,-4.522676 4.87624,2.087251 34.38659,15.391 34.38659,15.391 0,0 11.86731,19.104065 12.00694,19.92686 0.13963,0.822795 10.94623,18.248909 11.25125,18.97642 0.30503,0.727512 11.17156,13.479935 12.70388,15.928544 1.53233,2.448609 4.80081,11.609241 4.80081,11.609241 z"
       id="path3" />
    <path
       id="path2"
       style="fill:#ffccaa;stroke-width:34.2"
       d="M 148.05859 92.0625 C 145.95561 91.934839 125.25557 95.453388 120.49023 95.578125 C 115.72489 95.702862 87.692241 96.845703 83.226562 96.845703 C 78.760884 96.845703 40.072266 102.08167 38.683594 102.60352 C 37.294921 103.12537 31.148438 122.49414 31.148438 122.49414 L 31.921875 149.35156 C 31.921875 149.35156 29.035959 160.73242 28.490234 160.73242 C 27.944511 160.73242 23.294922 159.23828 23.294922 159.23828 L 20.509766 162.65039 L 16.900391 175.23438 L 19.599609 189.0293 C 19.599609 189.0293 26.326172 202.9152 26.326172 203.45703 C 26.326172 203.99885 33.067689 205.86842 33.675781 206.22461 C 34.283874 206.58079 36.935139 207.81178 37.667969 208.16992 C 38.400798 208.52805 50.833778 235.51579 52.587891 239.06445 C 54.342004 242.61312 85.547199 267.00212 87.089844 268.46875 C 88.632488 269.93539 131.62001 264.14844 133.41797 264.14844 C 135.21594 264.14844 158.60742 233.19922 158.60742 233.19922 C 158.60742 233.19922 170.22905 208.85122 170.71094 207.99414 C 171.19284 207.13706 175.94291 204.94794 176.42383 204.34375 C 176.90475 203.73955 183.67969 194.58008 183.67969 194.58008 C 183.67969 194.58008 185.66472 181.58066 186.89648 180.00586 C 188.12826 178.43105 187.49339 168.68126 187.13477 167.57422 C 186.77615 166.46718 184.01951 161.37408 183.08398 160.70703 C 182.14846 160.03997 176.04326 161.68501 174.69922 161.94922 C 173.35519 162.21343 178.10133 140.71289 176.81055 140.71289 C 176.81055 140.71289 177.81223 134.63467 177.6875 133.66602 C 177.56276 132.69736 176.9043 123.27991 176.9043 122.18359 C 176.9043 121.08727 167.56326 107.22547 164.91602 104.85156 C 162.26877 102.47766 150.16158 92.19016 148.05859 92.0625 z M 136.24805 160.17773 L 138.65234 160.68164 L 140.01758 162.58789 L 139.76562 165.32422 L 136.66992 165.70117 L 134.37305 164.11719 L 134.19727 161.05469 L 136.24805 160.17773 z M 70.224609 160.59961 C 70.224609 160.59961 72.017943 160.77059 72.863281 161.30273 C 73.708618 161.83488 74.259766 163.01172 74.259766 163.01172 L 74.082031 165.37305 L 71.955078 167.04688 L 68.845703 165.73438 L 67.849609 162.14062 L 70.224609 160.59961 z " />
    <path
       id="path1"
       style="display:inline;fill:#000000"
       d="m 85.085938,13.0625 c -2.987117,0.04934 -5.861599,0.26071 -8.554688,0.640625 -2.523979,0.356059 -4.650803,0.709396 -4.726562,0.785156 -0.07576,0.07576 2.243907,1.174495 5.154296,2.441407 2.91039,1.266911 6.026566,2.645887 6.925782,3.0625 l 1.634765,0.755859 -1.560547,0.208984 c -8.789065,1.177304 -17.437866,3.439905 -24.439453,6.392578 -6.543015,2.759287 -14.899902,7.702151 -20.320312,12.017579 -5.998678,4.775811 -13.572902,13.099695 -17.898438,19.671874 -2.205241,3.350622 -2.559768,4.02733 -2.027343,3.853516 4.472584,-1.460113 9.945844,-3.060014 10.064453,-2.941406 0.08501,0.08501 -0.697414,1.427598 -1.740235,2.982422 -8.846532,13.18999 -12.988328,27.507624 -12.986328,44.906246 0.0014,12.38309 0.837271,16.92867 6.482422,35.27539 2.302456,7.48298 4.185547,13.76685 4.185547,13.96485 0,0.20142 -0.527819,0.36319 -1.199219,0.36719 -2.727298,0.016 -4.917156,1.79389 -6.496094,5.27343 -1.465955,3.23058 -1.744028,5.18225 -1.736328,12.16016 0.0059,5.34882 0.124335,6.98984 0.728516,10 1.884847,9.39073 5.546992,16.62527 10.419922,20.58398 1.88715,1.53311 3.458325,2.19889 6.304687,2.67188 l 1.140625,0.18945 0.08594,0.86719 7.041015,20.0957 8.066407,19.22852 15.615234,16.60156 19.386719,5.18555 16.150389,1.60351 18.82422,-0.97851 c 0,0 13.276,-3.4615 14.64453,-3.81055 1.36853,-0.34904 9.83167,-8.41471 10.18555,-9.16602 0.35389,-0.7513 10.80089,-17.78168 11.14648,-18.57031 0.34559,-0.78863 10.78906,-21.14453 10.78906,-21.14453 l 4.53321,-9.05273 0.0918,0.0723 0.0195,-0.15429 2.54883,-1.22657 c 6.29206,-3.03293 11.54707,-10.94994 14.27539,-21.50586 1.3461,-5.20807 1.69788,-8.52395 1.50977,-14.20703 -0.13257,-4.00481 -0.31537,-5.47228 -0.94727,-7.58984 -1.57103,-5.26468 -3.57132,-6.8463 -7.66015,-6.06055 l -1.17188,0.22461 1.10156,-3.60937 c 6.16398,-20.20595 7.28107,-26.327 7.28907,-39.92969 0.005,-8.7806 -0.38104,-12.6467 -1.91407,-19.19922 -1.58053,-6.755579 -4.55654,-14.4365 -7.24804,-18.705078 -3.83883,-6.088158 -9.16688,-11.544123 -14.96485,-15.322266 -4.10715,-2.676359 -4.12536,-2.694539 -4.51367,-4.84375 -0.48112,-2.662865 -1.91201,-6.445357 -3.63672,-9.609375 -7.193,-13.195736 -24.07178,-25.351263 -42.60156,-30.68164 C 104.01522,14.227995 94.047287,12.914485 85.085938,13.0625 Z M 106.7207,25.375 c 9.17701,2.62031 12.67812,3.897373 18.5586,6.765625 13.32389,6.498836 23.01946,16.483353 24.97851,25.726563 0.47486,2.24046 0.64537,10.320107 0.20703,9.796874 -0.14007,-0.167199 -0.44569,-0.879985 -0.67968,-1.583984 -0.64809,-1.949978 -3.08336,-6.704195 -4.56446,-8.910156 -3.05281,-4.546912 -7.51178,-9.158052 -11.90429,-12.310547 -1.49615,-1.073778 -2.0377,-0.986954 -0.80469,0.128906 1.02901,0.931239 3.92862,5.432646 5.33984,8.291016 2.66312,5.394037 3.83754,10.194092 4.1211,16.824219 0.10969,2.564438 0.0923,5.228363 -0.0391,5.919922 l -0.23828,1.255859 -0.92383,-2.318359 c -4.24863,-10.668408 -15.24748,-20.416116 -29.33984,-26 -2.82609,-1.119797 -3.70184,-1.146024 -1.85547,-0.05664 5.00056,2.950398 12.67322,9.941804 16.56445,15.095703 4.45721,5.903516 7.22482,12.380844 7.80469,18.265625 l 0.23047,2.345703 L 132.12695,83 C 124.93456,77.34342 114.7083,71.129266 106.7207,67.5625 98.839296,64.043148 89.40406,61.186135 81.599609,59.953125 76.002635,59.06887 64.854042,59.13664 59.679688,60.087891 c -7.117777,1.308529 -7.189601,1.465482 -0.798829,1.705078 7.870342,0.295066 12.698223,1.200757 20.337891,3.818359 4.49836,1.541287 12.6821,5.440881 17.421875,8.302734 C 100.35278,76.155443 106.18644,80 105.87695,80 c -0.10855,0 -2.26676,-0.768247 -4.79687,-1.707031 -11.794352,-4.37623 -22.231963,-6.445238 -32.439455,-6.429688 -9.230584,0.01406 -15.373295,1.372697 -22.720703,5.025391 -7.714138,3.835012 -15.171151,10.971083 -19.246094,18.417969 -0.642006,1.173255 -1.438815,2.56575 -1.771484,3.09375 l -0.605469,0.958984 0.169922,-1.119141 c 1.580831,-10.394945 2.624121,-14.73264 4.808594,-20.009765 4.32759,-10.454352 12.563756,-19.945918 23.699218,-27.310547 2.295812,-1.518376 5.851211,-3.551532 7.902344,-4.519531 2.051132,-0.967999 3.736994,-1.859534 3.746094,-1.980469 0.01842,-0.246111 -0.729577,-0.15747 -6.189453,0.726562 -6.048176,0.979285 -10.937326,2.166511 -15.070313,3.66211 -2.628354,0.951119 -3.584335,1.194959 -3.039062,0.773437 2.536576,-1.960898 8.217743,-5.873135 10.589843,-7.292969 9.164973,-5.485743 20.869062,-9.469297 32.285157,-10.988281 4.595406,-0.611448 16.592052,-0.514141 21.281251,0.173828 4.03838,0.592486 11.73991,2.305245 12.75586,2.835938 2.4579,1.283913 -3.91362,-4.244342 -8.27539,-7.179688 -1.584,-1.065986 -2.59224,-1.856365 -2.24024,-1.755859 z m 53.11914,50.361328 2.0293,1.5625 c 4.54465,3.497882 9.94841,10.064302 12.59375,15.304688 1.58017,3.130297 3.1009,7.349352 3.95703,10.972654 0.44042,1.86395 0.74278,3.44668 0.67188,3.51758 -0.0709,0.0709 -0.73132,-1.64039 -1.46875,-3.80273 -3.14402,-9.219041 -8.39506,-17.616665 -16.14649,-25.82227 z m -13.78711,19.302734 c 0.045,0 1.07205,1.33294 2.28321,2.960938 2.95817,3.97629 8.125,9.07293 12.70312,12.53125 4.36706,3.29889 4.05043,2.34353 3.29883,9.94922 -0.2435,2.464 -0.61749,6.28047 -0.83203,8.48047 l -0.39063,4 1.13477,3.51953 c 3.51102,10.90144 6.09222,25.99533 6.10352,35.67969 0.005,4.31221 -0.10022,5.14847 -1.50391,11.83984 -4.70317,22.41992 -10.26653,36.33137 -18.68555,46.7207 -1.06966,1.32 -2.44147,2.87442 -3.04687,3.45508 l -1.09961,1.05664 -0.73047,-2.17578 c -1.66319,-4.95762 -3.71358,-8.15202 -6.51953,-10.1543 -2.44852,-1.74722 -11.03407,-6.21218 -16.61914,-8.64257 -11.19119,-4.86994 -20.66524,-5.86121 -30.546878,-3.19727 -6.531622,1.76083 -22.757923,9.05886 -26.445312,11.89453 -1.986915,1.52798 -3.50095,4.04867 -5.501953,9.16211 -0.865376,2.21142 -1.65386,4.02625 -1.75,4.03125 -0.268559,0.0147 -3.747816,-4.48982 -6.003906,-7.77148 -10.70559,-15.57217 -17.274329,-39.68866 -17.447266,-64.0586 -0.06152,-8.66964 0.425412,-11.05612 4.576172,-22.40039 l 1.990234,-5.43945 -0.191406,-3.51953 c -0.105588,-1.936 -0.281165,-6.90625 -0.390625,-11.04492 l -0.199219,-7.5254 2.171875,-2.03124 c 7.568386,-7.07986 18.31389,-10.06315 32.470703,-9.01563 2.727998,0.20185 8.847615,0.87858 13.59961,1.50586 10.016745,1.32223 20.869541,1.76192 26.773441,1.08398 10.08107,-1.15761 18.87546,-4.05182 27.57226,-9.076168 1.72994,-0.999423 3.18156,-1.81836 3.22656,-1.81836 z M 60.640625,139.11719 c -2.798867,-0.0405 -7.750431,3.2964 -11.109375,7.48828 -1.7924,2.23687 -5.371094,8.74431 -5.371094,9.76562 0,0.32474 0.401316,0.13629 1.246094,-0.58593 3.229393,-2.76088 9.975054,-5.96475 13.154297,-6.24805 1.559011,-0.13892 2.362028,0.0607 7.039062,1.75391 4.894971,1.77212 12.689256,4.3145 19.203125,6.26562 3.073303,0.92055 4.125712,1.78977 6.316407,5.21484 1.904456,2.97756 2.461746,5.27093 2.441406,10.0293 -0.01614,3.77577 -0.125551,4.54435 -1.546875,10.87891 -0.09873,0.44 0.12692,0.16431 0.5,-0.61328 0.901144,-1.87821 2.420654,-7.97212 2.859375,-11.46289 0.586774,-4.6688 0.07703,-7.36308 -2.296875,-12.125 -1.468,-2.94474 -1.620486,-3.45657 -1.666016,-5.59961 -0.02756,-1.29734 0.06133,-3.10184 0.197266,-4.00977 l 0.246094,-1.65039 -4.40625,-1.03125 c -6.318026,-1.47922 -12.809903,-3.43418 -19.607422,-5.90234 -3.414593,-1.23983 -6.460929,-2.15727 -7.199219,-2.16797 z m 84.464845,0.0195 c -2.15061,0.0882 -6.678,1.50047 -20.94531,5.70312 -2.728,0.80357 -6.25585,1.83392 -7.83985,2.28907 -1.584,0.45515 -2.99806,0.92744 -3.14258,1.04882 -0.14455,0.12138 -0.11299,1.29726 0.0703,2.61524 0.44934,3.23061 0.0296,5.57504 -1.53321,8.57226 -1.90429,3.65228 -2.41037,5.68921 -2.38867,9.59571 0.0199,3.58263 1.29298,10.15496 2.69141,13.89258 0.3767,1.00682 0.7553,1.76032 0.8418,1.67382 0.0865,-0.0865 -0.24507,-2.0041 -0.73829,-4.26172 -1.11243,-5.09194 -1.2382,-10.34243 -0.31836,-13.38476 0.96374,-3.18754 3.5023,-7.07764 5.41211,-8.29492 0.38744,-0.24695 2.79371,-1.03185 5.34571,-1.74414 2.55199,-0.7123 8.16652,-2.5447 12.47851,-4.07227 10.0142,-3.54763 10.23983,-3.59725 12.92969,-2.86914 2.87901,0.77931 8.46169,3.57397 11.51367,5.76367 1.38353,0.99264 2.58011,1.74021 2.6582,1.66211 0.17869,-0.17869 -2.80333,-5.52005 -4.43945,-7.95312 -3.00141,-4.46341 -6.22396,-7.54696 -9.70117,-9.28125 -1.16968,-0.58339 -1.60417,-1.00802 -2.89453,-0.95508 z m -9.74414,17.01953 c -3.22036,0.16296 -6.38888,1.39813 -9.03321,3.78711 -1.35219,1.22163 -6.14257,6.77734 -5.84374,6.77734 0.42013,0 3.39088,-1.65833 5.44531,-3.03906 3.49523,-2.34907 3.31045,-2.33533 2.76367,-0.22266 -0.42516,1.64276 -0.41885,2.0008 0.0664,3.66016 0.81258,2.77861 2.75087,4.68804 5.48046,5.39844 4.95805,1.29036 10.57817,-4.25536 9.14844,-9.02735 -0.2161,-0.72141 -0.33477,-1.3703 -0.26367,-1.4414 0.24326,-0.24326 6.26747,4.99439 7.77734,6.76172 0.82953,0.97098 1.56682,1.70857 1.63672,1.63867 0.28432,-0.28433 -1.61569,-4.66218 -2.83789,-6.53906 -3.46237,-5.31703 -8.97257,-8.02551 -14.33984,-7.75391 z m -68.027346,0.70898 c -2.156219,0.11475 -4.039759,0.64963 -6.138672,1.70508 -2.518633,1.26651 -4.618234,2.94115 -6.595703,5.25781 -1.312942,1.53815 -3.601951,5.36519 -3.349609,5.59961 0.06093,0.0566 1.478392,-0.97818 3.150391,-2.29882 3.104268,-2.45196 7.307956,-5.40645 8.152343,-5.73047 0.390714,-0.14994 0.378759,1.3e-4 -0.06641,0.89062 -0.294391,0.58889 -0.596292,1.89905 -0.669922,2.91016 -0.110104,1.51191 0.01693,2.14391 0.712891,3.5664 0.82046,1.67697 2.265151,3.09318 3.775391,3.69922 1.116354,0.44798 3.984661,0.38894 5.167968,-0.10546 3.71963,-1.55417 5.511125,-5.46266 4.203125,-9.16993 -0.265879,-0.75358 -0.438102,-1.4154 -0.382812,-1.4707 0.05529,-0.0553 1.245946,0.66288 2.644531,1.5957 3.477758,2.31958 5.515572,3.48222 5.880859,3.35352 0.168622,-0.0594 -0.696641,-1.35743 -1.921875,-2.88477 -3.55521,-4.43181 -7.379475,-6.57701 -12.296875,-6.89648 -0.797333,-0.0518 -1.546885,-0.0597 -2.265625,-0.0215 z m 69.703126,4.75586 c 0.50469,0.039 1.01179,0.23218 1.3125,0.56446 0.70553,0.77961 0.66935,1.42936 -0.12305,2.14648 -0.35984,0.32565 -0.91721,0.63264 -1.23828,0.68164 -1.24342,0.18976 -2.18093,-2.0925 -1.24414,-3.02929 0.28692,-0.28692 0.78827,-0.40224 1.29297,-0.36329 z m -66.056641,0.63672 c 0.478528,-0.0186 0.97998,0.0695 1.298828,0.27149 0.632575,0.40069 0.543078,1.98639 -0.140625,2.48632 -0.750915,0.54907 -1.11919,0.53453 -1.988281,-0.0742 -0.773729,-0.54194 -0.937148,-1.70738 -0.326172,-2.31836 0.223036,-0.22304 0.677721,-0.34663 1.15625,-0.36524 z m -47.09961,0.32813 c 1.660964,-0.0719 3.444501,2.60112 4.619141,7.28125 0.731426,2.91422 2.748788,15.52961 4.126953,25.8125 0.542534,4.04799 1.065623,7.75623 1.164063,8.24023 0.233971,1.15031 -0.186311,1.12654 -2.529297,-0.14453 -5.026975,-2.72714 -9.305888,-10.58543 -11.404297,-20.94531 -1.458856,-7.2024 -0.415393,-15.46032 2.429687,-19.23047 0.499162,-0.66146 1.040096,-0.9897 1.59375,-1.01367 z m 157.166021,0.29492 c 0.90468,0 2.31633,1.99132 3.03124,4.27539 0.63392,2.02528 0.71191,2.93646 0.69141,8.04297 -0.0187,4.66657 -0.15502,6.36839 -0.7207,8.96094 -2.23554,10.24547 -5.9796,17.45304 -10.58399,20.37304 -1.7251,1.09401 -1.88948,1.11256 -1.74023,0.1875 0.29808,-1.84742 2.67861,-23.26825 2.99609,-26.96093 0.39023,-4.53894 1.6748,-11.09902 2.38672,-12.18555 0.5308,-0.8101 3.28568,-2.69336 3.93946,-2.69336 z m -93.308599,28.63867 -1.27539,1.23242 c -2.726294,2.63347 -3.795066,6.11973 -2.796875,9.125 0.642286,1.93374 2.972232,4.21298 5.0625,4.95313 1.643096,0.58181 1.832031,0.60732 1.832031,0.24804 0,-0.15464 -0.429548,-0.45695 -0.953125,-0.67382 -1.354259,-0.56096 -3.328472,-2.82367 -4,-4.58203 -0.908998,-2.38018 -0.564658,-5.36239 0.9375,-8.11524 z m 29.246099,0.19336 c -0.076,0.0639 0.0261,0.33724 0.37695,0.84766 2.02175,2.94087 2.60056,7.12801 1.35156,9.78515 -0.88802,1.88918 -2.16996,3.20171 -4.11133,4.21289 -1.22804,0.63964 -1.34436,0.77153 -0.68164,0.76953 1.12385,-0.004 3.37069,-0.96839 4.66602,-2.00195 1.70279,-1.3587 2.48867,-3.17316 2.51367,-5.80664 0.0243,-2.55557 -0.65229,-4.26769 -2.56641,-6.50391 -0.79966,-0.93423 -1.42212,-1.40928 -1.54882,-1.30273 z m -24.652349,7.9668 c -1.017572,0 -1.916637,1.29668 -1.646484,2.37304 0.268085,1.06814 1.608687,1.45114 6.173828,1.75977 2.079146,0.14056 4.140075,0.27227 4.580075,0.29297 2.40266,0.1129 10.27946,-0.59397 11.2793,-1.01172 1.2709,-0.53103 1.73196,-1.4603 1.20898,-2.4375 -0.61228,-1.14407 -1.83474,-1.17483 -3.8164,-0.0937 -4.85625,2.64927 -10.673512,2.67396 -15.306642,0.0625 -0.921333,-0.51931 -2.034048,-0.94531 -2.472657,-0.94531 z m 10.003909,24.13086 1.55273,0.89648 c 3.94462,2.27787 10.81877,4.32418 22.3418,6.65235 4.3951,0.888 8.0855,1.71957 8.20117,1.84765 0.11567,0.12808 0.63447,2.64784 1.15234,5.59961 l 0.94141,5.36719 -2.10156,2.05859 c -3.83777,3.75798 -8.10644,6.75411 -13.45508,9.44336 -1.40471,0.70627 -2.59468,1.27658 -2.64258,1.26758 -0.19374,-0.036 -9.05207,-11.96903 -9.13867,-12.31055 -0.0514,-0.20265 2.57443,-2.37159 5.83594,-4.82031 3.26151,-2.44873 5.93159,-4.56387 5.93359,-4.69922 0.002,-0.1353 -0.3208,-0.17364 -0.7168,-0.0859 -0.396,0.0877 -4.60738,0.53974 -9.35937,1.00391 -11.039148,1.0783 -16.308507,0.87877 -25.361329,-0.95703 -1.099999,-0.22308 -2,-0.27955 -2,-0.125 0,0.58313 4.738593,4.93498 6.513672,5.98242 1.017955,0.60068 3.094109,1.56063 4.615235,2.13281 l 2.765624,1.04102 -2.867187,2.98047 c -1.57699,1.63993 -4.082904,4.24586 -5.568359,5.78906 -1.485456,1.54321 -2.924676,2.80619 -3.199219,2.80664 -0.274543,4.5e-4 -2.514517,-1.00964 -4.978516,-2.24414 -4.647203,-2.32831 -9.061783,-5.26961 -12.171875,-8.10938 l -1.804687,-1.64843 1.097656,-3.03907 c 1.43842,-3.98192 3.112462,-7.95973 3.433594,-8.1582 0.140579,-0.0869 2.377516,-0.52209 4.972656,-0.96875 11.458534,-1.97217 18.112571,-3.74571 22.722656,-6.05664 z" />
  </g>
</svg>
